<svg width="61" height="60" viewBox="0 0 61 60" fill="none" xmlns="http://www.w3.org/2000/svg">
<g opacity="0.5">
<path d="M59.877 32.81L52.2305 33.9058L52.2137 33.9998L59.007 37.6738L58.6802 39.5011L50.0864 34.6269L50.4533 32.5757L60.2031 30.9872L59.877 32.81Z" fill="#E2E2E2"/>
<path d="M56.9235 42.9736L48.4394 39.1211L49.1373 37.5842L57.6213 41.4367L56.9235 42.9736Z" fill="#E2E2E2"/>
<path d="M48.241 39.9731L55.6129 45.6719L51.9065 50.4665L50.787 49.6011L53.4611 46.1419L51.4597 44.5948L48.9777 47.8056L47.8582 46.9402L50.3403 43.7294L48.3281 42.1739L45.6318 45.6619L44.5123 44.7965L48.241 39.9731Z" fill="#E2E2E2"/>
<path d="M42.9674 46.2743L49.7452 53.1879L48.1524 54.0588L43.3942 48.8566L43.3184 48.8981L45.0308 55.7658L43.5817 56.5582L38.7176 51.4087L38.6457 51.448L40.4601 58.2652L38.8673 59.1362L36.7042 49.6991L38.1652 48.9002L42.9386 53.7416L43.0025 53.7066L41.5064 47.0732L42.9674 46.2743Z" fill="#E2E2E2"/>
<path d="M25.895 59.6046L25.0921 51.9218L24.9988 51.9014L21.068 58.5495L19.2546 58.1531L24.4534 49.7517L26.4891 50.1967L27.7041 60L25.895 59.6046Z" fill="#E2E2E2"/>
<path d="M15.8211 56.23L20.017 47.9104L21.5241 48.6705L17.3282 56.9901L15.8211 56.23Z" fill="#E2E2E2"/>
<path d="M19.1916 47.6848L13.2021 54.8225L8.55984 50.927L9.46938 49.843L12.8187 52.6536L14.4447 50.7158L11.3359 48.1071L12.2455 47.0232L15.3543 49.6319L16.9891 47.6836L13.6119 44.8497L14.5215 43.7658L19.1916 47.6848Z" fill="#E2E2E2"/>
<path d="M13.1395 42.1944L5.97986 48.7118L5.16842 47.0879L10.5432 42.5255L10.5045 42.4481L3.57808 43.9053L2.83986 42.4279L8.16579 37.7576L8.12918 37.6843L1.24952 39.2453L0.438079 37.6214L9.94865 35.8088L10.693 37.2984L5.67838 41.8894L5.71092 41.9546L12.3952 40.7049L13.1395 42.1944Z" fill="#E2E2E2"/>
<path d="M0.470759 24.6L8.1804 24.1192L8.20469 24.0268L1.72689 19.8214L2.1988 18.0261L10.3753 23.5719L9.84559 25.5872L0 26.3909L0.470759 24.6Z" fill="#E2E2E2"/>
<path d="M4.22961 14.6999L12.3717 19.2307L11.551 20.7056L3.40886 16.1749L4.22961 14.6999Z" fill="#E2E2E2"/>
<path d="M12.5902 18.4372L5.69771 12.167L9.77577 7.6842L10.8224 8.63636L7.88022 11.8706L9.75141 13.5728L12.4824 10.5708L13.529 11.523L10.7981 14.525L12.6794 16.2364L15.6461 12.9753L16.6927 13.9275L12.5902 18.4372Z" fill="#E2E2E2"/>
<path d="M18.3094 12.5633L12.0901 5.14331L13.7457 4.39891L18.0848 9.95561L18.1636 9.92016L16.9907 2.93997L18.497 2.26273L22.9458 7.77507L23.0205 7.74149L21.742 0.803784L23.3977 0.0593854L24.8201 9.63609L23.3013 10.3189L18.9191 5.12089L18.8527 5.15074L19.8281 11.8805L18.3094 12.5633Z" fill="#E2E2E2"/>
<path d="M36.3303 0.538253L36.5187 8.26058L36.6101 8.28835L41.0579 1.97448L42.834 2.51405L36.9825 10.4747L34.9888 9.86897L34.5585 0L36.3303 0.538253Z" fill="#E2E2E2"/>
<path d="M46.2209 4.73395L41.3642 12.6859L39.9236 11.8061L44.7804 3.85414L46.2209 4.73395Z" fill="#E2E2E2"/>
<path d="M42.1515 12.9377L48.6921 6.30135L53.0083 10.5553L52.0151 11.5631L48.901 8.49397L47.1254 10.2956L50.0158 13.1444L49.0226 14.1522L46.1321 11.3034L44.3469 13.1148L47.4868 16.2095L46.4936 17.2172L42.1515 12.9377Z" fill="#E2E2E2"/>
<path d="M47.8137 18.9357L55.4828 13.0262L56.1586 14.7111L50.4284 18.8183L50.4606 18.8985L57.4831 18.0132L58.0979 19.5461L52.4075 23.7648L52.438 23.8408L59.4224 22.8482L60.0982 24.5331L50.4711 25.5611L49.8512 24.0156L55.2248 19.8504L55.1977 19.7828L48.4336 20.4812L47.8137 18.9357Z" fill="#E2E2E2"/>
</g>
<path d="M26.2201 34.059L34.1797 26.0991M34.1797 26.0991L26.2201 26.0997M34.1797 26.0991L34.2201 34.0991" stroke="#E2E2E2" stroke-width="2" stroke-linecap="round" stroke-linejoin="round"/>
</svg>
